<?xml version="1.0" encoding="UTF-8" standalone="no"?>
<svg
   xmlns:dc="http://purl.org/dc/elements/1.1/"
   xmlns:cc="http://creativecommons.org/ns#"
   xmlns:rdf="http://www.w3.org/1999/02/22-rdf-syntax-ns#"
   xmlns:svg="http://www.w3.org/2000/svg"
   xmlns="http://www.w3.org/2000/svg"
   viewBox="0 0 635.83997 254.71999"
   height="254.71999"
   width="635.83997"
   xml:space="preserve"
   id="svg2"
   version="1.1"><metadata
     id="metadata8"><rdf:RDF><cc:Work
         rdf:about=""><dc:format>image/svg+xml</dc:format><dc:type
           rdf:resource="http://purl.org/dc/dcmitype/StillImage" /></cc:Work></rdf:RDF></metadata><defs
     id="defs6"><clipPath
       id="clipPath18"
       clipPathUnits="userSpaceOnUse"><path
         style="clip-rule:evenodd"
         id="path16"
         d="M 0,0 H 1988 V 795.01953 H 0 Z" /></clipPath><clipPath
       id="clipPath30"
       clipPathUnits="userSpaceOnUse"><path
         style="clip-rule:evenodd"
         id="path28"
         d="m 71.875,28.125 h 1843.75 v 737.5 H 71.875 Z" /></clipPath></defs><g
     transform="matrix(0.31999998,0,0,0.31999998,0,9.701333e-6)"
     id="g10"><g
       id="g12"><g
         clip-path="url(#clipPath18)"
         id="g14"><g
           transform="scale(3.125)"
           id="g20"><path
             id="path22"
             style="fill:#ffffff;fill-opacity:1;fill-rule:nonzero;stroke:none"
             d="M 0,0 H 636 V 254 H 0 Z" /></g></g></g><g
       id="g24"><g
         clip-path="url(#clipPath30)"
         id="g26"><g
           transform="matrix(2.7714808,0,0,2.7714808,-698.1994,-2512.9692)"
           id="g32"><path
             id="path34"
             style="fill:none;stroke:#000000;stroke-width:1;stroke-linecap:butt;stroke-linejoin:miter;stroke-miterlimit:10;stroke-dasharray:none;stroke-opacity:1"
             d="M 280,950 H 940" /><path
             id="path36"
             style="fill:none;stroke:#000000;stroke-width:1;stroke-linecap:butt;stroke-linejoin:miter;stroke-miterlimit:10;stroke-dasharray:none;stroke-opacity:1"
             d="M 280,990 H 940" /><path
             id="path38"
             style="fill:none;stroke:#000000;stroke-width:1;stroke-linecap:butt;stroke-linejoin:miter;stroke-miterlimit:10;stroke-dasharray:none;stroke-opacity:1"
             d="M 280,1030 H 940" /><path
             id="path40"
             style="fill:none;stroke:#000000;stroke-width:1;stroke-linecap:butt;stroke-linejoin:miter;stroke-miterlimit:10;stroke-dasharray:none;stroke-opacity:1"
             d="M 280,1070 H 940" /><path
             id="path42"
             style="fill:none;stroke:#000000;stroke-width:1;stroke-linecap:butt;stroke-linejoin:miter;stroke-miterlimit:10;stroke-dasharray:none;stroke-opacity:1"
             d="M 280,1110 H 940" /><path
             id="path44"
             style="fill:none;stroke:#000000;stroke-width:1;stroke-linecap:butt;stroke-linejoin:miter;stroke-miterlimit:10;stroke-dasharray:none;stroke-opacity:1"
             d="M 280,1150 H 940" /><path
             id="path46"
             style="fill:#fad7ac;fill-opacity:1;fill-rule:nonzero;stroke:none"
             d="M 812.96002,1140 H 832.57 v 19.61 h -19.60998 z" /><path
             id="path48"
             style="fill:none;stroke:#b46504;stroke-width:1;stroke-linecap:butt;stroke-linejoin:miter;stroke-miterlimit:10;stroke-dasharray:none;stroke-opacity:1"
             d="M 812.96002,1140 H 832.57 v 19.61 h -19.60998 z" /><path
             id="path50"
             style="fill:#fad7ac;fill-opacity:1;fill-rule:nonzero;stroke:none"
             d="M 812.96002,1100 H 832.57 v 19.61 h -19.60998 z" /><path
             id="path52"
             style="fill:none;stroke:#b46504;stroke-width:1;stroke-linecap:butt;stroke-linejoin:miter;stroke-miterlimit:10;stroke-dasharray:none;stroke-opacity:1"
             d="M 812.96002,1100 H 832.57 v 19.61 h -19.60998 z" /><path
             id="path54"
             style="fill:#fad7ac;fill-opacity:1;fill-rule:nonzero;stroke:none"
             d="M 812.96002,1060 H 832.57 v 19.61 h -19.60998 z" /><path
             id="path56"
             style="fill:none;stroke:#b46504;stroke-width:1;stroke-linecap:butt;stroke-linejoin:miter;stroke-miterlimit:10;stroke-dasharray:none;stroke-opacity:1"
             d="M 812.96002,1060 H 832.57 v 19.61 h -19.60998 z" /><path
             id="path58"
             style="fill:#fad7ac;fill-opacity:1;fill-rule:nonzero;stroke:none"
             d="M 812.96002,1020 H 832.57 v 19.61 h -19.60998 z" /><path
             id="path60"
             style="fill:none;stroke:#b46504;stroke-width:1;stroke-linecap:butt;stroke-linejoin:miter;stroke-miterlimit:10;stroke-dasharray:none;stroke-opacity:1"
             d="M 812.96002,1020 H 832.57 v 19.61 h -19.60998 z" /><path
             id="path62"
             style="fill:#fad7ac;fill-opacity:1;fill-rule:nonzero;stroke:none"
             d="M 812.96002,980 H 832.57 v 19.60999 h -19.60998 z" /><path
             id="path64"
             style="fill:none;stroke:#b46504;stroke-width:1;stroke-linecap:butt;stroke-linejoin:miter;stroke-miterlimit:10;stroke-dasharray:none;stroke-opacity:1"
             d="M 812.96002,980 H 832.57 v 19.60999 h -19.60998 z" /><path
             id="path66"
             style="fill:#fad7ac;fill-opacity:1;fill-rule:nonzero;stroke:none"
             d="M 812.96002,940 H 832.57 v 19.60999 h -19.60998 z" /><path
             id="path68"
             style="fill:none;stroke:#b46504;stroke-width:1;stroke-linecap:butt;stroke-linejoin:miter;stroke-miterlimit:10;stroke-dasharray:none;stroke-opacity:1"
             d="M 812.96002,940 H 832.57 v 19.60999 h -19.60998 z" /><path
             id="path70"
             style="fill:#fad7ac;fill-opacity:1;fill-rule:nonzero;stroke:none"
             d="m 460.07001,1140 h 19.60998 v 19.61 h -19.60998 z" /><path
             id="path72"
             style="fill:none;stroke:#b46504;stroke-width:1;stroke-linecap:butt;stroke-linejoin:miter;stroke-miterlimit:10;stroke-dasharray:none;stroke-opacity:1"
             d="m 460.07001,1140 h 19.60998 v 19.61 h -19.60998 z" /><path
             id="path74"
             style="fill:#fad7ac;fill-opacity:1;fill-rule:nonzero;stroke:none"
             d="m 460.07001,1100 h 19.60998 v 19.61 h -19.60998 z" /><path
             id="path76"
             style="fill:none;stroke:#b46504;stroke-width:1;stroke-linecap:butt;stroke-linejoin:miter;stroke-miterlimit:10;stroke-dasharray:none;stroke-opacity:1"
             d="m 460.07001,1100 h 19.60998 v 19.61 h -19.60998 z" /><path
             id="path78"
             style="fill:#fad7ac;fill-opacity:1;fill-rule:nonzero;stroke:none"
             d="m 460.07001,1060 h 19.60998 v 19.61 h -19.60998 z" /><path
             id="path80"
             style="fill:none;stroke:#b46504;stroke-width:1;stroke-linecap:butt;stroke-linejoin:miter;stroke-miterlimit:10;stroke-dasharray:none;stroke-opacity:1"
             d="m 460.07001,1060 h 19.60998 v 19.61 h -19.60998 z" /><path
             id="path82"
             style="fill:#fad7ac;fill-opacity:1;fill-rule:nonzero;stroke:none"
             d="m 460.07001,1020 h 19.60998 v 19.61 h -19.60998 z" /><path
             id="path84"
             style="fill:none;stroke:#b46504;stroke-width:1;stroke-linecap:butt;stroke-linejoin:miter;stroke-miterlimit:10;stroke-dasharray:none;stroke-opacity:1"
             d="m 460.07001,1020 h 19.60998 v 19.61 h -19.60998 z" /><path
             id="path86"
             style="fill:#fad7ac;fill-opacity:1;fill-rule:nonzero;stroke:none"
             d="m 460.07001,980 h 19.60998 v 19.60999 h -19.60998 z" /><path
             id="path88"
             style="fill:none;stroke:#b46504;stroke-width:1;stroke-linecap:butt;stroke-linejoin:miter;stroke-miterlimit:10;stroke-dasharray:none;stroke-opacity:1"
             d="m 460.07001,980 h 19.60998 v 19.60999 h -19.60998 z" /><path
             id="path90"
             style="fill:#fad7ac;fill-opacity:1;fill-rule:nonzero;stroke:none"
             d="m 460.07001,940 h 19.60998 v 19.60999 h -19.60998 z" /><path
             id="path92"
             style="fill:none;stroke:#b46504;stroke-width:1;stroke-linecap:butt;stroke-linejoin:miter;stroke-miterlimit:10;stroke-dasharray:none;stroke-opacity:1"
             d="m 460.07001,940 h 19.60998 v 19.60999 h -19.60998 z" /><path
             id="path94"
             style="fill:#fad7ac;fill-opacity:1;fill-rule:nonzero;stroke:none"
             d="M 577.70001,1140 H 597.31 v 19.61 h -19.60999 z" /><path
             id="path96"
             style="fill:none;stroke:#b46504;stroke-width:1;stroke-linecap:butt;stroke-linejoin:miter;stroke-miterlimit:10;stroke-dasharray:none;stroke-opacity:1"
             d="M 577.70001,1140 H 597.31 v 19.61 h -19.60999 z" /><path
             id="path98"
             style="fill:#fad7ac;fill-opacity:1;fill-rule:nonzero;stroke:none"
             d="M 577.70001,1100 H 597.31 v 19.61 h -19.60999 z" /><path
             id="path100"
             style="fill:none;stroke:#b46504;stroke-width:1;stroke-linecap:butt;stroke-linejoin:miter;stroke-miterlimit:10;stroke-dasharray:none;stroke-opacity:1"
             d="M 577.70001,1100 H 597.31 v 19.61 h -19.60999 z" /><path
             id="path102"
             style="fill:#fad7ac;fill-opacity:1;fill-rule:nonzero;stroke:none"
             d="M 577.70001,1060 H 597.31 v 19.61 h -19.60999 z" /><path
             id="path104"
             style="fill:none;stroke:#b46504;stroke-width:1;stroke-linecap:butt;stroke-linejoin:miter;stroke-miterlimit:10;stroke-dasharray:none;stroke-opacity:1"
             d="M 577.70001,1060 H 597.31 v 19.61 h -19.60999 z" /><path
             id="path106"
             style="fill:#fad7ac;fill-opacity:1;fill-rule:nonzero;stroke:none"
             d="M 577.70001,1020 H 597.31 v 19.61 h -19.60999 z" /><path
             id="path108"
             style="fill:none;stroke:#b46504;stroke-width:1;stroke-linecap:butt;stroke-linejoin:miter;stroke-miterlimit:10;stroke-dasharray:none;stroke-opacity:1"
             d="M 577.70001,1020 H 597.31 v 19.61 h -19.60999 z" /><path
             id="path110"
             style="fill:#fad7ac;fill-opacity:1;fill-rule:nonzero;stroke:none"
             d="M 577.70001,980 H 597.31 v 19.60999 h -19.60999 z" /><path
             id="path112"
             style="fill:none;stroke:#b46504;stroke-width:1;stroke-linecap:butt;stroke-linejoin:miter;stroke-miterlimit:10;stroke-dasharray:none;stroke-opacity:1"
             d="M 577.70001,980 H 597.31 v 19.60999 h -19.60999 z" /><path
             id="path114"
             style="fill:#fad7ac;fill-opacity:1;fill-rule:nonzero;stroke:none"
             d="M 577.70001,940 H 597.31 v 19.60999 h -19.60999 z" /><path
             id="path116"
             style="fill:none;stroke:#b46504;stroke-width:1;stroke-linecap:butt;stroke-linejoin:miter;stroke-miterlimit:10;stroke-dasharray:none;stroke-opacity:1"
             d="M 577.70001,940 H 597.31 v 19.60999 h -19.60999 z" /><path
             id="path118"
             style="fill:#fad7ac;fill-opacity:1;fill-rule:nonzero;stroke:none"
             d="M 695.33002,1140 H 714.94 v 19.61 h -19.60998 z" /><path
             id="path120"
             style="fill:none;stroke:#b46504;stroke-width:1;stroke-linecap:butt;stroke-linejoin:miter;stroke-miterlimit:10;stroke-dasharray:none;stroke-opacity:1"
             d="M 695.33002,1140 H 714.94 v 19.61 h -19.60998 z" /><path
             id="path122"
             style="fill:#fad7ac;fill-opacity:1;fill-rule:nonzero;stroke:none"
             d="M 695.33002,1100 H 714.94 v 19.61 h -19.60998 z" /><path
             id="path124"
             style="fill:none;stroke:#b46504;stroke-width:1;stroke-linecap:butt;stroke-linejoin:miter;stroke-miterlimit:10;stroke-dasharray:none;stroke-opacity:1"
             d="M 695.33002,1100 H 714.94 v 19.61 h -19.60998 z" /><path
             id="path126"
             style="fill:#fad7ac;fill-opacity:1;fill-rule:nonzero;stroke:none"
             d="M 695.33002,1060 H 714.94 v 19.61 h -19.60998 z" /><path
             id="path128"
             style="fill:none;stroke:#b46504;stroke-width:1;stroke-linecap:butt;stroke-linejoin:miter;stroke-miterlimit:10;stroke-dasharray:none;stroke-opacity:1"
             d="M 695.33002,1060 H 714.94 v 19.61 h -19.60998 z" /><path
             id="path130"
             style="fill:#fad7ac;fill-opacity:1;fill-rule:nonzero;stroke:none"
             d="M 695.33002,1020 H 714.94 v 19.61 h -19.60998 z" /><path
             id="path132"
             style="fill:none;stroke:#b46504;stroke-width:1;stroke-linecap:butt;stroke-linejoin:miter;stroke-miterlimit:10;stroke-dasharray:none;stroke-opacity:1"
             d="M 695.33002,1020 H 714.94 v 19.61 h -19.60998 z" /><path
             id="path134"
             style="fill:#fad7ac;fill-opacity:1;fill-rule:nonzero;stroke:none"
             d="M 695.33002,980 H 714.94 v 19.60999 h -19.60998 z" /><path
             id="path136"
             style="fill:none;stroke:#b46504;stroke-width:1;stroke-linecap:butt;stroke-linejoin:miter;stroke-miterlimit:10;stroke-dasharray:none;stroke-opacity:1"
             d="M 695.33002,980 H 714.94 v 19.60999 h -19.60998 z" /><path
             id="path138"
             style="fill:#fad7ac;fill-opacity:1;fill-rule:nonzero;stroke:none"
             d="M 695.33002,940 H 714.94 v 19.60999 h -19.60998 z" /><path
             id="path140"
             style="fill:none;stroke:#b46504;stroke-width:1;stroke-linecap:butt;stroke-linejoin:miter;stroke-miterlimit:10;stroke-dasharray:none;stroke-opacity:1"
             d="M 695.33002,940 H 714.94 v 19.60999 h -19.60998 z" /><path
             id="path142"
             style="fill:#d5e8d4;fill-opacity:1;fill-rule:nonzero;stroke:none"
             d="m 743.35999,940 h 41.17999 c 0.5791,0 1.15265,0.0565 1.7207,0.16949 0.56793,0.11292 1.11945,0.28016 1.65448,0.50177 0.53504,0.22162 1.04334,0.49329 1.5249,0.81507 0.48151,0.32178 0.92707,0.68744 1.33655,1.09698 0.40949,0.40949 0.77509,0.85498 1.0968,1.33649 0.32178,0.48151 0.59351,0.98981 0.81513,1.52484 0.22162,0.53504 0.38885,1.08655 0.50183,1.6546 0.11304,0.56806 0.16955,1.1416 0.16962,1.72077 v 202.36009 c -7e-5,0.5789 -0.0566,1.1525 -0.16962,1.7205 -0.11298,0.5679 -0.28027,1.1194 -0.50189,1.6545 -0.22162,0.5351 -0.49335,1.0434 -0.81507,1.5249 -0.32171,0.4815 -0.68731,0.9271 -1.0968,1.3366 -0.40948,0.4096 -0.85504,0.7752 -1.33661,1.097 -0.4815,0.3217 -0.9898,0.5935 -1.52484,0.815 -0.53503,0.2216 -1.08655,0.3889 -1.65448,0.5018 -0.56805,0.1131 -1.1416,0.1696 -1.7207,0.1696 h -41.17999 c -0.57917,0 -1.15271,-0.056 -1.72071,-0.1696 -0.56799,-0.1129 -1.1195,-0.2802 -1.6546,-0.5018 -0.5351,-0.2215 -1.04346,-0.4933 -1.52496,-0.815 -0.48151,-0.3218 -0.92701,-0.6874 -1.33649,-1.097 -0.40948,-0.4095 -0.77515,-0.8551 -1.09692,-1.3366 -0.32172,-0.4815 -0.59339,-0.9898 -0.81501,-1.5248 -0.22161,-0.5351 -0.38885,-1.0866 -0.50183,-1.6546 -0.11297,-0.568 -0.16949,-1.1416 -0.16949,-1.7205 V 948.82001 c 0,-0.57917 0.0565,-1.15271 0.16949,-1.72077 0.11298,-0.56805 0.28022,-1.11956 0.50183,-1.6546 0.22162,-0.53509 0.49329,-1.04339 0.81507,-1.5249 0.32171,-0.48151 0.68738,-0.927 1.09686,-1.33649 0.40948,-0.40948 0.85498,-0.77514 1.33649,-1.09692 0.4815,-0.32178 0.9898,-0.59345 1.5249,-0.81507 0.53509,-0.22161 1.08661,-0.38885 1.6546,-0.50183 0.56806,-0.11297 1.1416,-0.16943 1.72077,-0.16943 z" /><path
             id="path144"
             style="fill:none;stroke:#82b366;stroke-width:1;stroke-linecap:butt;stroke-linejoin:miter;stroke-miterlimit:10;stroke-dasharray:none;stroke-opacity:1"
             d="m 743.35999,940 h 41.17999 c 0.5791,0 1.15265,0.0565 1.7207,0.16949 0.56793,0.11292 1.11945,0.28016 1.65448,0.50177 0.53504,0.22162 1.04334,0.49329 1.5249,0.81507 0.48151,0.32178 0.92707,0.68744 1.33655,1.09698 0.40949,0.40949 0.77509,0.85498 1.0968,1.33649 0.32178,0.48151 0.59351,0.98981 0.81513,1.52484 0.22162,0.53504 0.38885,1.08655 0.50183,1.6546 0.11304,0.56806 0.16955,1.1416 0.16962,1.72077 v 202.36009 c -7e-5,0.5789 -0.0566,1.1525 -0.16962,1.7205 -0.11298,0.5679 -0.28027,1.1194 -0.50189,1.6545 -0.22162,0.5351 -0.49335,1.0434 -0.81507,1.5249 -0.32171,0.4815 -0.68731,0.9271 -1.0968,1.3366 -0.40948,0.4096 -0.85504,0.7752 -1.33661,1.097 -0.4815,0.3217 -0.9898,0.5935 -1.52484,0.815 -0.53503,0.2216 -1.08655,0.3889 -1.65448,0.5018 -0.56805,0.1131 -1.1416,0.1696 -1.7207,0.1696 h -41.17999 c -0.57917,0 -1.15271,-0.056 -1.72071,-0.1696 -0.56799,-0.1129 -1.1195,-0.2802 -1.6546,-0.5018 -0.5351,-0.2215 -1.04346,-0.4933 -1.52496,-0.815 -0.48151,-0.3218 -0.92701,-0.6874 -1.33649,-1.097 -0.40948,-0.4095 -0.77515,-0.8551 -1.09692,-1.3366 -0.32172,-0.4815 -0.59339,-0.9898 -0.81501,-1.5248 -0.22161,-0.5351 -0.38885,-1.0866 -0.50183,-1.6546 -0.11297,-0.568 -0.16949,-1.1416 -0.16949,-1.7205 V 948.82001 c 0,-0.57917 0.0565,-1.15271 0.16949,-1.72077 0.11298,-0.56805 0.28022,-1.11956 0.50183,-1.6546 0.22162,-0.53509 0.49329,-1.04339 0.81507,-1.5249 0.32171,-0.48151 0.68738,-0.927 1.09686,-1.33649 0.40948,-0.40948 0.85498,-0.77514 1.33649,-1.09692 0.4815,-0.32178 0.9898,-0.59345 1.5249,-0.81507 0.53509,-0.22161 1.08661,-0.38885 1.6546,-0.50183 0.56806,-0.11297 1.1416,-0.16943 1.72077,-0.16943 z" /><path
             id="path146"
             style="fill:#d5e8d4;fill-opacity:1;fill-rule:nonzero;stroke:none"
             d="m 625.72998,940 h 41.17999 c 0.5791,0 1.15265,0.0565 1.72065,0.16949 0.56793,0.11292 1.11944,0.28016 1.65448,0.50177 0.53503,0.22162 1.04333,0.49329 1.5249,0.81507 0.4815,0.32178 0.92706,0.68744 1.33661,1.09698 0.40948,0.40949 0.77514,0.85498 1.09686,1.33649 0.32172,0.48151 0.59344,0.98981 0.81506,1.52484 0.22162,0.53504 0.38892,1.08655 0.50196,1.6546 0.11297,0.56806 0.16943,1.1416 0.16949,1.72077 v 202.36009 c -6e-5,0.5789 -0.0565,1.1525 -0.16949,1.7205 -0.11304,0.5679 -0.28034,1.1194 -0.50196,1.6545 -0.22162,0.5351 -0.49334,1.0434 -0.81512,1.5249 -0.32172,0.4815 -0.68732,0.9271 -1.0968,1.3366 -0.40955,0.4096 -0.85511,0.7752 -1.33661,1.097 -0.48151,0.3217 -0.98981,0.5935 -1.52484,0.815 -0.53504,0.2216 -1.08655,0.3889 -1.65454,0.5018 -0.568,0.1131 -1.14155,0.1696 -1.72065,0.1696 h -41.17999 c -0.57916,0 -1.15271,-0.056 -1.72076,-0.1696 -0.56806,-0.1129 -1.11957,-0.2802 -1.65461,-0.5018 -0.53509,-0.2215 -1.04333,-0.4933 -1.52484,-0.815 -0.4815,-0.3218 -0.92706,-0.6874 -1.33654,-1.097 -0.40949,-0.4095 -0.77515,-0.8551 -1.09687,-1.3366 -0.32178,-0.4815 -0.59344,-0.9898 -0.81506,-1.5248 -0.22162,-0.5351 -0.38898,-1.0866 -0.50195,-1.6546 -0.11298,-0.568 -0.16944,-1.1416 -0.16938,-1.7205 V 948.82001 c -6e-5,-0.57917 0.0564,-1.15271 0.16938,-1.72077 0.11297,-0.56805 0.28033,-1.11956 0.50195,-1.6546 0.22162,-0.53509 0.49335,-1.04339 0.81506,-1.5249 0.32178,-0.48151 0.68744,-0.927 1.09693,-1.33649 0.40948,-0.40948 0.85498,-0.77514 1.33648,-1.09692 0.48151,-0.32178 0.98975,-0.59345 1.52484,-0.81507 0.53504,-0.22161 1.08655,-0.38885 1.65461,-0.50183 0.56805,-0.11297 1.1416,-0.16943 1.72076,-0.16943 z" /><path
             id="path148"
             style="fill:none;stroke:#82b366;stroke-width:1;stroke-linecap:butt;stroke-linejoin:miter;stroke-miterlimit:10;stroke-dasharray:none;stroke-opacity:1"
             d="m 625.72998,940 h 41.17999 c 0.5791,0 1.15265,0.0565 1.72065,0.16949 0.56793,0.11292 1.11944,0.28016 1.65448,0.50177 0.53503,0.22162 1.04333,0.49329 1.5249,0.81507 0.4815,0.32178 0.92706,0.68744 1.33661,1.09698 0.40948,0.40949 0.77514,0.85498 1.09686,1.33649 0.32172,0.48151 0.59344,0.98981 0.81506,1.52484 0.22162,0.53504 0.38892,1.08655 0.50196,1.6546 0.11297,0.56806 0.16943,1.1416 0.16949,1.72077 v 202.36009 c -6e-5,0.5789 -0.0565,1.1525 -0.16949,1.7205 -0.11304,0.5679 -0.28034,1.1194 -0.50196,1.6545 -0.22162,0.5351 -0.49334,1.0434 -0.81512,1.5249 -0.32172,0.4815 -0.68732,0.9271 -1.0968,1.3366 -0.40955,0.4096 -0.85511,0.7752 -1.33661,1.097 -0.48151,0.3217 -0.98981,0.5935 -1.52484,0.815 -0.53504,0.2216 -1.08655,0.3889 -1.65454,0.5018 -0.568,0.1131 -1.14155,0.1696 -1.72065,0.1696 h -41.17999 c -0.57916,0 -1.15271,-0.056 -1.72076,-0.1696 -0.56806,-0.1129 -1.11957,-0.2802 -1.65461,-0.5018 -0.53509,-0.2215 -1.04333,-0.4933 -1.52484,-0.815 -0.4815,-0.3218 -0.92706,-0.6874 -1.33654,-1.097 -0.40949,-0.4095 -0.77515,-0.8551 -1.09687,-1.3366 -0.32178,-0.4815 -0.59344,-0.9898 -0.81506,-1.5248 -0.22162,-0.5351 -0.38898,-1.0866 -0.50195,-1.6546 -0.11298,-0.568 -0.16944,-1.1416 -0.16938,-1.7205 V 948.82001 c -6e-5,-0.57917 0.0564,-1.15271 0.16938,-1.72077 0.11297,-0.56805 0.28033,-1.11956 0.50195,-1.6546 0.22162,-0.53509 0.49335,-1.04339 0.81506,-1.5249 0.32178,-0.48151 0.68744,-0.927 1.09693,-1.33649 0.40948,-0.40948 0.85498,-0.77514 1.33648,-1.09692 0.48151,-0.32178 0.98975,-0.59345 1.52484,-0.81507 0.53504,-0.22161 1.08655,-0.38885 1.65461,-0.50183 0.56805,-0.11297 1.1416,-0.16943 1.72076,-0.16943 z" /><path
             id="path150"
             style="fill:#d5e8d4;fill-opacity:1;fill-rule:nonzero;stroke:none"
             d="m 508.10001,940 h 41.17996 c 0.5791,0 1.15265,0.0565 1.7207,0.16949 0.56793,0.11292 1.11945,0.28016 1.65448,0.50177 0.53504,0.22162 1.04334,0.49329 1.5249,0.81507 0.48151,0.32178 0.92701,0.68744 1.33655,1.09698 0.40949,0.40949 0.77515,0.85498 1.09686,1.33649 0.32178,0.48151 0.59345,0.98981 0.81507,1.52484 0.22162,0.53504 0.38891,1.08655 0.50189,1.6546 0.11304,0.56806 0.16956,1.1416 0.16956,1.72077 v 202.36009 c 0,0.5789 -0.0565,1.1525 -0.1695,1.7205 -0.11304,0.5679 -0.28033,1.1194 -0.50195,1.6545 -0.22162,0.5351 -0.49329,1.0434 -0.81507,1.5249 -0.32171,0.4815 -0.68731,0.9271 -1.0968,1.3366 -0.40954,0.4096 -0.8551,0.7752 -1.33661,1.097 -0.4815,0.3217 -0.9898,0.5935 -1.5249,0.815 -0.53503,0.2216 -1.08655,0.3889 -1.65454,0.5018 -0.56799,0.1131 -1.14154,0.1696 -1.72064,0.1696 h -41.17996 c -0.57914,0 -1.15274,-0.056 -1.72077,-0.1696 -0.56799,-0.1129 -1.1195,-0.2802 -1.65457,-0.5018 -0.53506,-0.2215 -1.04333,-0.4933 -1.52484,-0.815 -0.48151,-0.3218 -0.927,-0.6874 -1.33652,-1.097 -0.40951,-0.4095 -0.77514,-0.8551 -1.09689,-1.3366 -0.32178,-0.4815 -0.59348,-0.9898 -0.81507,-1.5248 -0.22161,-0.5351 -0.38891,-1.0866 -0.50192,-1.6546 -0.11297,-0.568 -0.16946,-1.1416 -0.16943,-1.7205 V 948.82001 c -3e-5,-0.57917 0.0565,-1.15271 0.1694,-1.72077 0.11301,-0.56805 0.28031,-1.11956 0.50192,-1.6546 0.22162,-0.53509 0.49329,-1.04339 0.81504,-1.5249 0.32174,-0.48151 0.68741,-0.927 1.09692,-1.33649 0.40949,-0.40948 0.85498,-0.77514 1.33649,-1.09692 0.48153,-0.32178 0.98984,-0.59345 1.5249,-0.81507 0.53507,-0.22161 1.08658,-0.38885 1.6546,-0.50183 C 506.9473,940.05646 507.52087,940 508.10001,940 Z" /><path
             id="path152"
             style="fill:none;stroke:#82b366;stroke-width:1;stroke-linecap:butt;stroke-linejoin:miter;stroke-miterlimit:10;stroke-dasharray:none;stroke-opacity:1"
             d="m 508.10001,940 h 41.17996 c 0.5791,0 1.15265,0.0565 1.7207,0.16949 0.56793,0.11292 1.11945,0.28016 1.65448,0.50177 0.53504,0.22162 1.04334,0.49329 1.5249,0.81507 0.48151,0.32178 0.92701,0.68744 1.33655,1.09698 0.40949,0.40949 0.77515,0.85498 1.09686,1.33649 0.32178,0.48151 0.59345,0.98981 0.81507,1.52484 0.22162,0.53504 0.38891,1.08655 0.50189,1.6546 0.11304,0.56806 0.16956,1.1416 0.16956,1.72077 v 202.36009 c 0,0.5789 -0.0565,1.1525 -0.1695,1.7205 -0.11304,0.5679 -0.28033,1.1194 -0.50195,1.6545 -0.22162,0.5351 -0.49329,1.0434 -0.81507,1.5249 -0.32171,0.4815 -0.68731,0.9271 -1.0968,1.3366 -0.40954,0.4096 -0.8551,0.7752 -1.33661,1.097 -0.4815,0.3217 -0.9898,0.5935 -1.5249,0.815 -0.53503,0.2216 -1.08655,0.3889 -1.65454,0.5018 -0.56799,0.1131 -1.14154,0.1696 -1.72064,0.1696 h -41.17996 c -0.57914,0 -1.15274,-0.056 -1.72077,-0.1696 -0.56799,-0.1129 -1.1195,-0.2802 -1.65457,-0.5018 -0.53506,-0.2215 -1.04333,-0.4933 -1.52484,-0.815 -0.48151,-0.3218 -0.927,-0.6874 -1.33652,-1.097 -0.40951,-0.4095 -0.77514,-0.8551 -1.09689,-1.3366 -0.32178,-0.4815 -0.59348,-0.9898 -0.81507,-1.5248 -0.22161,-0.5351 -0.38891,-1.0866 -0.50192,-1.6546 -0.11297,-0.568 -0.16946,-1.1416 -0.16943,-1.7205 V 948.82001 c -3e-5,-0.57917 0.0565,-1.15271 0.1694,-1.72077 0.11301,-0.56805 0.28031,-1.11956 0.50192,-1.6546 0.22162,-0.53509 0.49329,-1.04339 0.81504,-1.5249 0.32174,-0.48151 0.68741,-0.927 1.09692,-1.33649 0.40949,-0.40948 0.85498,-0.77514 1.33649,-1.09692 0.48153,-0.32178 0.98984,-0.59345 1.5249,-0.81507 0.53507,-0.22161 1.08658,-0.38885 1.6546,-0.50183 C 506.9473,940.05646 507.52087,940 508.10001,940 Z" /><path
             id="path154"
             style="fill:#d5e8d4;fill-opacity:1;fill-rule:nonzero;stroke:none"
             d="m 390.46002,940 h 41.17999 c 0.57911,0 1.15265,0.0565 1.72068,0.16949 0.56796,0.11292 1.11947,0.28016 1.65454,0.50177 0.53503,0.22162 1.04333,0.49329 1.5249,0.81507 0.48154,0.32178 0.92706,0.68744 1.33658,1.09698 0.40948,0.40949 0.77508,0.85498 1.09683,1.33649 0.32175,0.48151 0.59345,0.98981 0.81506,1.52484 0.22162,0.53504 0.38892,1.08655 0.5019,1.6546 0.113,0.56806 0.16949,1.1416 0.16952,1.72077 v 202.36009 c -3e-5,0.5789 -0.0565,1.1525 -0.16952,1.7205 -0.11298,0.5679 -0.28028,1.1194 -0.5019,1.6545 -0.22164,0.5351 -0.49331,1.0434 -0.81506,1.5249 -0.32178,0.4815 -0.68741,0.9271 -1.09689,1.3366 -0.40952,0.4096 -0.85504,0.7752 -1.33658,1.097 -0.48154,0.3217 -0.98981,0.5935 -1.52487,0.815 -0.53504,0.2216 -1.08655,0.3889 -1.65451,0.5018 -0.56803,0.1131 -1.14157,0.1696 -1.72068,0.1696 h -41.17999 c -0.57913,0 -1.15274,-0.056 -1.72076,-0.1696 -0.568,-0.1129 -1.11951,-0.2802 -1.65451,-0.5018 -0.53507,-0.2215 -1.04337,-0.4933 -1.52491,-0.815 -0.4815,-0.3218 -0.927,-0.6874 -1.33651,-1.097 -0.40952,-0.4095 -0.77515,-0.8551 -1.0969,-1.3366 -0.32174,-0.4815 -0.59344,-0.9898 -0.81506,-1.5248 -0.22165,-0.5351 -0.38895,-1.0866 -0.50192,-1.6546 -0.11298,-0.568 -0.16947,-1.1416 -0.16944,-1.7205 V 948.82001 c -3e-5,-0.57917 0.0565,-1.15271 0.16944,-1.72077 0.113,-0.56805 0.2803,-1.11956 0.50195,-1.6546 0.22162,-0.53509 0.49329,-1.04339 0.81503,-1.5249 0.32175,-0.48151 0.68738,-0.927 1.0969,-1.33649 0.40951,-0.40948 0.85501,-0.77514 1.33651,-1.09692 0.48154,-0.32178 0.98981,-0.59345 1.52485,-0.81507 0.53506,-0.22161 1.08657,-0.38885 1.65457,-0.50183 C 389.30728,940.05646 389.88089,940 390.46002,940 Z" /><path
             id="path156"
             style="fill:none;stroke:#82b366;stroke-width:1;stroke-linecap:butt;stroke-linejoin:miter;stroke-miterlimit:10;stroke-dasharray:none;stroke-opacity:1"
             d="m 390.46002,940 h 41.17999 c 0.57911,0 1.15265,0.0565 1.72068,0.16949 0.56796,0.11292 1.11947,0.28016 1.65454,0.50177 0.53503,0.22162 1.04333,0.49329 1.5249,0.81507 0.48154,0.32178 0.92706,0.68744 1.33658,1.09698 0.40948,0.40949 0.77508,0.85498 1.09683,1.33649 0.32175,0.48151 0.59345,0.98981 0.81506,1.52484 0.22162,0.53504 0.38892,1.08655 0.5019,1.6546 0.113,0.56806 0.16949,1.1416 0.16952,1.72077 v 202.36009 c -3e-5,0.5789 -0.0565,1.1525 -0.16952,1.7205 -0.11298,0.5679 -0.28028,1.1194 -0.5019,1.6545 -0.22164,0.5351 -0.49331,1.0434 -0.81506,1.5249 -0.32178,0.4815 -0.68741,0.9271 -1.09689,1.3366 -0.40952,0.4096 -0.85504,0.7752 -1.33658,1.097 -0.48154,0.3217 -0.98981,0.5935 -1.52487,0.815 -0.53504,0.2216 -1.08655,0.3889 -1.65451,0.5018 -0.56803,0.1131 -1.14157,0.1696 -1.72068,0.1696 h -41.17999 c -0.57913,0 -1.15274,-0.056 -1.72076,-0.1696 -0.568,-0.1129 -1.11951,-0.2802 -1.65451,-0.5018 -0.53507,-0.2215 -1.04337,-0.4933 -1.52491,-0.815 -0.4815,-0.3218 -0.927,-0.6874 -1.33651,-1.097 -0.40952,-0.4095 -0.77515,-0.8551 -1.0969,-1.3366 -0.32174,-0.4815 -0.59344,-0.9898 -0.81506,-1.5248 -0.22165,-0.5351 -0.38895,-1.0866 -0.50192,-1.6546 -0.11298,-0.568 -0.16947,-1.1416 -0.16944,-1.7205 V 948.82001 c -3e-5,-0.57917 0.0565,-1.15271 0.16944,-1.72077 0.113,-0.56805 0.2803,-1.11956 0.50195,-1.6546 0.22162,-0.53509 0.49329,-1.04339 0.81503,-1.5249 0.32175,-0.48151 0.68738,-0.927 1.0969,-1.33649 0.40951,-0.40948 0.85501,-0.77514 1.33651,-1.09692 0.48154,-0.32178 0.98981,-0.59345 1.52485,-0.81507 0.53506,-0.22161 1.08657,-0.38885 1.65457,-0.50183 C 389.30728,940.05646 389.88089,940 390.46002,940 Z" /><path
             id="path158"
             style="fill:#b81a1f;fill-opacity:1;fill-rule:nonzero;stroke:none"
             d="m 417,918.5 h 9 v 3 h -9 z m 18,0 h 9 v 3 h -9 z m 18,0 h 9 v 3 h -9 z m 18,0 h 9 v 3 h -9 z m 18,0 h 9 v 3 h -9 z m 18,0 h 9 v 3 h -9 z m 18,0 h 9 v 3 h -9 z m 18,0 h 9 v 3 h -9 z m 18,0 h 9 v 3 h -9 z m 18,0 h 9 v 3 h -9 z m 18,0 h 9 v 3 h -9 z m 18,0 h 9 v 3 h -9 z m 18,0 h 9 v 3 h -9 z m 18,0 h 9 v 3 h -9 z m 18,0 h 9 v 3 h -9 z m 18,0 h 9 v 3 h -9 z m 18,0 h 9 v 3 h -9 z m 18,0 h 9 v 3 h -9 z m 18,0 h 9 v 3 h -9 z m 18,0 h 9 v 3 h -9 z m 18,0 h 9 v 3 h -9 z m 18,0 h 9 v 3 h -9 z m 18,0 h 3 c 2.07318,-6e-5 4.13416,0.1582 6.18304,0.47467 l -0.458,2.96484 C 819.82794,921.64648 817.91962,921.49994 816,921.5 h -3 z m 18.2121,2.96545 c 2.9046,1.17719 5.63556,2.67127 8.19293,4.48224 l -1.73377,2.44837 c -2.36822,-1.677 -4.89691,-3.06043 -7.58599,-4.15033 z m 15.15423,10.73633 c 2.07929,2.35608 3.86023,4.91962 5.34284,7.69055 l -2.64514,1.41529 c -1.37262,-2.56537 -3.02167,-4.93897 -4.94709,-7.12073 z m 8.77497,16.39575 c 0.80365,3.02417 1.25091,6.10028 1.34167,9.22828 l -2.99878,0.087 c -0.084,-2.8963 -0.49811,-5.74457 -1.24231,-8.5448 l 2.89942,-0.77051 z m 1.3587,18.24036 v 9 h -3 v -9 z m 0,18 v 9 h -3 v -9 z m 0,18.00001 v 9 h -3 v -9 z m 0,18 v 9 h -3 v -9 z m 0,18 v 9 h -3 v -9 z m 0,18 v 9 h -3 v -9 z m 0,18 v 9 h -3 v -9 z m 0,18 v 9 h -3 v -9 z m 0,18 v 9 h -3 v -9 z m 0,18 v 9 h -3 v -9 z m -0.44879,18.1752 c -0.46698,3.1102 -1.28522,6.1253 -2.45465,9.0453 l -2.78491,-1.1155 c 1.08276,-2.7035 1.84033,-5.4953 2.27276,-8.3754 z m -6.90216,17.2547 c -1.80402,2.57 -3.87879,4.8987 -6.22431,6.9862 l -1.9945,-2.2409 c 2.17181,-1.9329 4.09289,-4.0891 5.76336,-6.4689 z m -13.8924,12.3614 c -2.76312,1.4934 -5.66046,2.6496 -8.69201,3.4686 l -0.78247,-2.8963 c 2.80731,-0.7584 5.48999,-1.8289 8.04809,-3.2115 z m -17.91784,4.8487 c -0.44696,0.015 -0.89325,0.022 -1.33881,0.022 h -7.67584 v -3 H 816 c 0.41431,0 0.82764,-0.01 1.24005,-0.02 l 0.0988,2.9983 z m -18.01465,0.022 h -9 v -3 h 9 z m -18,0 h -9 v -3 h 9 z m -18,0 h -9 v -3 h 9 z m -18,0 h -9 v -3 h 9 z m -18,0 h -9 v -3 h 9 z m -18,0 h -9 v -3 h 9 z m -18,0 h -9 v -3 h 9 z m -17.99994,0 h -9.00006 v -3 h 9.00006 z m -18.00006,0 h -8.99994 v -3 h 8.99994 z m -17.99994,0 h -9.00006 v -3 h 9.00006 z m -18,0 h -9 v -3 h 9 z m -18,0 h -9 v -3 h 9 z m -18,0 h -9 v -3 h 9 z m -18,0 h -9 v -3 h 9 z m -18,0 h -9 v -3 h 9 z m -18,0 h -9 v -3 h 9 z m -18.00003,0 h -9 v -3 h 9 z m -18,0 h -8.99997 v -3 h 8.99997 z m -17.99997,0 h -9 v -3 h 9 z m -18,0 h -9 v -3 h 9 z m -18,0 h -9 v -3 h 9 z m -18,0 h -9 v -3 h 9 z m -18,0 H 399 c -1.60468,0 -3.2034,-0.095 -4.79617,-0.2849 l 0.35522,-2.979 c 1.47537,0.1759 2.95569,0.2639 4.44095,0.2639 h 4.32422 z m -18.2359,-2.4644 c -2.95053,-1.0789 -5.73776,-2.4824 -8.3617,-4.2103 l 1.64997,-2.5056 c 2.42947,1.5999 5.01016,2.8993 7.74206,3.8983 z m -15.5228,-10.2171 c -2.15777,-2.2833 -4.02463,-4.7836 -5.60058,-7.501 l 2.59515,-1.5051 c 1.45929,2.5162 3.1879,4.8314 5.18585,6.9455 z m -9.33044,-16.0912 c -0.90833,-3.0024 -1.46036,-6.069 -1.65613,-9.1997 l 2.99414,-0.1873 c 0.18127,2.899 0.69241,5.7384 1.53345,8.5183 z M 358.5,1134.4861 v -9 h 3 v 9 z m 0,-18 v -9 h 3 v 9 z m 0,-18 v -9 h 3 v 9 z m 0,-18 v -9 h 3 v 9 z m 0,-18 v -9 h 3 v 9 z m 0,-18 v -9 h 3 v 9 z m 0,-18 v -9 h 3 v 9 z m 0,-18 v -8.99999 h 3 v 8.99999 z m 0,-17.99999 v -9 h 3 v 9 z m 0,-18 v -9 h 3 v 9 z m 0.26523,-18.11341 c 0.35928,-3.1242 1.07281,-6.16534 2.14053,-9.12341 l 2.82178,1.01855 c -0.98862,2.7389 -1.64929,5.55475 -1.98197,8.44764 z m 6.31738,-17.50561 c 1.71387,-2.62641 3.70593,-5.02143 5.9762,-7.18512 l 2.06976,2.17163 c -2.10205,2.00336 -3.94656,4.22107 -5.53357,6.65301 z m 13.45322,-12.81671 c 2.71219,-1.58796 5.5704,-2.84333 8.57467,-3.76606 l 0.8808,2.8678 c -2.78186,0.85443 -5.4284,2.01685 -7.93966,3.48712 z m 17.76974,-5.4607 c 0.89743,-0.0599 1.7956,-0.0898 2.69449,-0.0898 H 408 v 3 h -9.00006 c -0.83273,-6e-5 -1.66425,0.0276 -2.4946,0.0831 l -0.19977,-2.99329 z" /></g></g></g></g></svg>