<svg width="3763" height="1202" xmlns="http://www.w3.org/2000/svg" xmlns:xlink="http://www.w3.org/1999/xlink" xml:space="preserve" overflow="hidden"><g transform="translate(-252 -598)"><path d="M393 694 4007.43 694" stroke="#000000" stroke-width="13.75" stroke-miterlimit="8" fill="none" fill-rule="evenodd"/><path d="M393 892 4007.43 892" stroke="#000000" stroke-width="13.75" stroke-miterlimit="8" fill="none" fill-rule="evenodd"/><path d="M393 1094 4007.43 1094" stroke="#000000" stroke-width="13.75" stroke-miterlimit="8" fill="none" fill-rule="evenodd"/><path d="M381 1294 3995.43 1294" stroke="#000000" stroke-width="13.75" stroke-miterlimit="8" fill="none" fill-rule="evenodd"/><path d="M381 1492 3995.43 1492" stroke="#000000" stroke-width="13.75" stroke-miterlimit="8" fill="none" fill-rule="evenodd"/><path d="M381 1694 3995.43 1694" stroke="#000000" stroke-width="13.75" stroke-miterlimit="8" fill="none" fill-rule="evenodd"/><text font-family="Verdana Pro,Verdana Pro_MSFontService,sans-serif" font-weight="400" font-size="83" transform="matrix(1 0 0 1 307.02 726)">0</text><text font-family="Verdana Pro,Verdana Pro_MSFontService,sans-serif" font-weight="400" font-size="83" transform="matrix(1 0 0 1 301.832 924)">1</text><text font-family="Verdana Pro,Verdana Pro_MSFontService,sans-serif" font-weight="400" font-size="83" transform="matrix(1 0 0 1 307.02 1126)">2</text><text font-family="Verdana Pro,Verdana Pro_MSFontService,sans-serif" font-weight="400" font-size="83" transform="matrix(1 0 0 1 307.02 1327)">3</text><text font-family="Verdana Pro,Verdana Pro_MSFontService,sans-serif" font-weight="400" font-size="83" transform="matrix(1 0 0 1 301.832 1524)">4</text><text font-family="Verdana Pro,Verdana Pro_MSFontService,sans-serif" font-weight="400" font-size="83" transform="matrix(1 0 0 1 301.832 1726)">5</text><path d="M523 621.334C523 608.447 533.447 598 546.334 598L639.666 598C652.553 598 663 608.447 663 621.334L663 1757.67C663 1770.55 652.553 1781 639.666 1781L546.334 1781C533.447 1781 523 1770.55 523 1757.67Z" fill="#A5300F" fill-rule="evenodd"/><path d="M847 621.334C847 608.447 857.447 598 870.334 598L963.667 598C976.554 598 987.001 608.447 987.001 621.334L987.001 1757.67C987.001 1770.55 976.554 1781 963.667 1781L870.334 1781C857.447 1781 847 1770.55 847 1757.67Z" fill="#999999" fill-rule="evenodd"/><text font-family="Verdana Pro,Verdana Pro_MSFontService,sans-serif" font-weight="400" font-size="83" transform="matrix(6.12323e-17 -1 1 6.12323e-17 949.334 1271)">DFT</text><path d="M1171 621.334C1171 608.447 1181.45 598 1194.33 598L1287.67 598C1300.55 598 1311 608.447 1311 621.334L1311 1757.67C1311 1770.55 1300.55 1781 1287.67 1781L1194.33 1781C1181.45 1781 1171 1770.55 1171 1757.67Z" fill="#A5300F" fill-rule="evenodd"/><path d="M1494 630.334C1494 617.447 1504.45 607 1517.33 607L1610.67 607C1623.55 607 1634 617.447 1634 630.334L1634 1766.67C1634 1779.55 1623.55 1790 1610.67 1790L1517.33 1790C1504.45 1790 1494 1779.55 1494 1766.67Z" fill="#999999" fill-rule="evenodd"/><text font-family="Verdana Pro,Verdana Pro_MSFontService,sans-serif" font-weight="400" font-size="83" transform="matrix(6.12323e-17 -1 1 6.12323e-17 1596.88 1280)">DFT</text><path d="M3761 621.334C3761 608.447 3771.45 598 3784.33 598L3877.67 598C3890.55 598 3901 608.447 3901 621.334L3901 1757.67C3901 1770.55 3890.55 1781 3877.67 1781L3784.33 1781C3771.45 1781 3761 1770.55 3761 1757.67Z" fill="#A5300F" fill-rule="evenodd"/><path d="M1818 630.334C1818 617.447 1828.45 607 1841.33 607L1934.67 607C1947.55 607 1958 617.447 1958 630.334L1958 1766.67C1958 1779.55 1947.55 1790 1934.67 1790L1841.33 1790C1828.45 1790 1818 1779.55 1818 1766.67Z" fill="#A5300F" fill-rule="evenodd"/><path d="M2142 630.334C2142 617.447 2152.45 607 2165.33 607L2258.67 607C2271.55 607 2282 617.447 2282 630.334L2282 1766.67C2282 1779.55 2271.55 1790 2258.67 1790L2165.33 1790C2152.45 1790 2142 1779.55 2142 1766.67Z" fill="#999999" fill-rule="evenodd"/><text font-family="Verdana Pro,Verdana Pro_MSFontService,sans-serif" font-weight="400" font-size="83" transform="matrix(6.12323e-17 -1 1 6.12323e-17 2244.42 1280)">DFT</text><path d="M2466 630.334C2466 617.447 2476.45 607 2489.33 607L2582.67 607C2595.55 607 2606 617.447 2606 630.334L2606 1766.67C2606 1779.55 2595.55 1790 2582.67 1790L2489.33 1790C2476.45 1790 2466 1779.55 2466 1766.67Z" fill="#A5300F" fill-rule="evenodd"/><path d="M2789 640.5C2789 627.521 2799.52 617 2812.5 617L2906.5 617C2919.48 617 2930 627.521 2930 640.5L2930 1776.5C2930 1789.48 2919.48 1800 2906.5 1800L2812.5 1800C2799.52 1800 2789 1789.48 2789 1776.5Z" fill="#999999" fill-rule="evenodd"/><text font-family="Verdana Pro,Verdana Pro_MSFontService,sans-serif" font-weight="400" font-size="83" transform="matrix(6.12323e-17 -1 1 6.12323e-17 2891.97 1290)">DFT</text><path d="M3113 630.334C3113 617.447 3123.45 607 3136.33 607L3229.67 607C3242.55 607 3253 617.447 3253 630.334L3253 1766.67C3253 1779.55 3242.55 1790 3229.67 1790L3136.33 1790C3123.45 1790 3113 1779.55 3113 1766.67Z" fill="#A5300F" fill-rule="evenodd"/><path d="M3437 630.334C3437 617.447 3447.45 607 3460.33 607L3553.67 607C3566.55 607 3577 617.447 3577 630.334L3577 1766.67C3577 1779.55 3566.55 1790 3553.67 1790L3460.33 1790C3447.45 1790 3437 1779.55 3437 1766.67Z" fill="#999999" fill-rule="evenodd"/><text font-family="Verdana Pro,Verdana Pro_MSFontService,sans-serif" font-weight="400" font-size="83" transform="matrix(6.12323e-17 -1 1 6.12323e-17 3539.51 1280)">DFT</text></g></svg>